# xmcd
#
# Track frame offsets:
#	150
#	9930
#	20624
#	40264
#	59194
#	78457
#	106183
#	123435
#
# Disc length: 1727 seconds
#
# Revision: 1
# Processed by: cddbd v1.5.1PL0 Copyright (c) Steve Scherf et al.
# Submitted via: audiograbber 1.83.01
#
DISCID=6106bd08
DTITLE=des_ark - Loose Lips Sink Ships
DYEAR=2005
DGENRE=Punk Rock
TTITLE0=Some Are Love
TTITLE1=No More Fighting Cats, OK?
TTITLE2=Queen of the Sketch Patrol
TTITLE3=Yes Sir, Yes Way
TTITLE4=It's a Hard World Sometimes for Little Things
TTITLE5=Jesus Loves You (But You're Still Coming Home With Me)
TTITLE6=Send Jolley to Raleigh
TTITLE7=For Bob Riecke
EXTD=
EXTT0=
EXTT1=
EXTT2=
EXTT3=
EXTT4=
EXTT5=
EXTT6=
EXTT7=
PLAYORDER=
